<?xml version="1.0" encoding="UTF-8"?>
<svg xmlns="http://www.w3.org/2000/svg" xmlns:xlink="http://www.w3.org/1999/xlink" width="1000px" height="1000px" viewBox="0 0 1000 1000" version="1.1">
<g id="surface1">
<path style=" stroke:none;fill-rule:nonzero;fill:rgb(100%,66.666669%,100%);fill-opacity:0.666667;" d="M 328.925781 450.480469 C 325.960938 452.082031 324.519531 454.648438 324.519531 458.171875 C 324.519531 460.976562 325 462.097656 326.84375 464.023438 C 333.574219 470.671875 345.273438 462.742188 341.027344 454.40625 C 338.863281 450.242188 332.851562 448.238281 328.925781 450.480469 M 462.902344 450.082031 C 462.582031 450.320312 462.339844 456.652344 462.339844 464.023438 L 462.339844 477.484375 L 458.574219 475.722656 C 455.289062 474.199219 453.285156 473.957031 445.511719 473.957031 C 436.699219 473.957031 436.058594 474.039062 430.929688 476.601562 C 424.839844 479.566406 421.3125 483.171875 418.347656 489.582031 C 416.425781 493.589844 416.265625 494.871094 416.265625 504.007812 C 416.265625 513.300781 416.425781 514.34375 418.507812 518.589844 C 421.3125 524.359375 426.28125 529.328125 431.890625 531.972656 C 435.898438 533.894531 437.179688 534.054688 446.714844 534.054688 C 456.089844 534.054688 457.53125 533.894531 460.976562 532.132812 C 467.066406 529.167969 472.195312 523.957031 474.839844 518.269531 L 477.164062 513.222656 L 477.402344 481.332031 L 477.644531 449.519531 L 470.511719 449.519531 C 466.585938 449.519531 463.140625 449.757812 462.902344 450.082031 M 452.324219 488.863281 C 456.332031 489.902344 460.417969 493.75 461.617188 497.515625 C 462.980469 501.441406 462.742188 509.777344 461.296875 512.582031 C 458.414062 517.949219 454.085938 520.191406 446.234375 520.191406 C 435.738281 520.191406 431.089844 515.222656 431.089844 504.167969 C 431.089844 498.558594 432.851562 493.347656 435.335938 491.265625 C 438.941406 488.300781 446.394531 487.257812 452.324219 488.863281 M 368.027344 475.082031 C 362.820312 477.003906 360.257812 478.765625 355.847656 483.574219 C 351.683594 488.140625 349.359375 493.109375 348.796875 498.878906 L 348.316406 503.207031 L 352.082031 503.207031 C 357.292969 503.207031 360.976562 504.96875 366.265625 510.015625 C 371.394531 514.984375 372.917969 515.304688 378.285156 512.820312 C 382.933594 510.738281 385.097656 510.816406 391.988281 513.222656 C 398.558594 515.542969 404.726562 515.867188 406.570312 514.023438 C 408.253906 512.257812 408.894531 508.011719 408.492188 501.121094 C 407.773438 490.222656 401.28125 480.769531 391.1875 476.121094 C 384.9375 473.238281 374.199219 472.757812 368.027344 475.082031 M 562.902344 474.359375 C 555.847656 476.121094 550 481.007812 547.355469 487.179688 C 545.753906 490.945312 545.671875 492.226562 545.832031 512.582031 L 546.074219 534.054688 L 552.402344 534.292969 C 556.007812 534.457031 559.132812 534.132812 559.535156 533.734375 C 560.097656 533.171875 560.417969 525.480469 560.417969 513.222656 L 560.496094 493.589844 L 562.980469 491.105469 C 567.546875 486.617188 576.28125 487.179688 579.40625 492.308594 C 580.769531 494.550781 580.929688 496.472656 580.929688 513.703125 C 580.929688 527.242188 581.167969 532.773438 581.890625 533.492188 C 582.851562 534.457031 591.1875 534.777344 594.390625 533.972656 L 596.152344 533.492188 L 596.152344 514.261719 C 596.152344 492.789062 596.394531 491.585938 601.601562 489.101562 C 605.289062 487.339844 610.816406 487.980469 613.460938 490.464844 C 616.507812 493.269531 616.988281 496.792969 616.988281 515.707031 C 616.988281 531.007812 617.148438 533.574219 618.1875 533.972656 C 618.910156 534.214844 622.117188 534.214844 625.402344 533.894531 L 631.410156 533.414062 L 631.410156 512.417969 C 631.410156 488.460938 630.929688 485.898438 625.640625 480.609375 C 621.394531 476.363281 616.265625 474.199219 609.292969 473.71875 C 602.242188 473.238281 595.671875 475.082031 591.746094 478.445312 L 588.941406 480.929688 L 586.136719 478.445312 C 581.410156 474.277344 570.59375 472.355469 562.902344 474.359375 M 663.863281 474.277344 C 654.488281 475.242188 647.515625 479.886719 643.667969 487.820312 C 641.585938 492.148438 641.425781 493.027344 641.425781 502.804688 C 641.425781 509.132812 641.828125 514.664062 642.46875 516.90625 C 644.230469 522.917969 648.71875 528.042969 654.96875 531.25 L 660.496094 534.054688 L 679.488281 534.292969 C 695.511719 534.535156 698.558594 534.375 699.4375 533.414062 C 700 532.613281 700.320312 530.207031 700.160156 526.683594 L 699.917969 521.234375 L 681.492188 520.832031 C 664.902344 520.511719 662.820312 520.273438 660.738281 518.832031 C 658.253906 517.148438 655.6875 512.257812 656.8125 511.136719 C 657.210938 510.738281 667.066406 510.335938 678.6875 510.257812 L 699.917969 510.015625 L 699.917969 500.402344 C 699.917969 491.988281 699.679688 490.382812 698.078125 487.417969 C 692.148438 476.203125 682.371094 472.4375 663.863281 474.277344 M 678.847656 488.78125 C 682.371094 489.824219 685.097656 492.949219 685.097656 496.074219 L 685.097656 498.398438 L 656.089844 498.398438 L 656.570312 495.832031 C 657.210938 492.707031 659.054688 490.542969 662.257812 489.101562 C 665.144531 487.820312 674.679688 487.660156 678.847656 488.78125 M 325.882812 474.917969 C 325.5625 475.160156 325.320312 488.460938 325.320312 504.488281 C 325.320312 537.339844 324.597656 534.457031 332.613281 534.457031 C 341.1875 534.457031 340.542969 536.9375 340.542969 504.808594 C 340.542969 489.503906 340.304688 476.363281 340.0625 475.640625 C 339.664062 474.597656 338.222656 474.359375 333.011719 474.359375 C 329.328125 474.359375 326.121094 474.597656 325.882812 474.917969 M 483.171875 476.042969 C 483.171875 477.003906 487.902344 489.261719 493.589844 503.367188 C 500.882812 521.152344 503.925781 529.566406 503.527344 530.769531 C 503.285156 531.652344 501.203125 536.859375 499.039062 542.308594 C 496.875 547.757812 495.273438 552.722656 495.511719 553.367188 C 495.832031 554.246094 497.597656 554.488281 502.722656 554.488281 C 508.972656 554.488281 509.695312 554.328125 510.738281 552.644531 C 513.300781 548.476562 541.828125 476.042969 541.1875 475.082031 C 540.945312 474.679688 537.417969 474.359375 533.253906 474.359375 L 525.800781 474.359375 L 524.597656 477.324219 C 523.957031 479.007812 520.992188 487.097656 518.027344 495.433594 C 514.984375 503.6875 512.339844 510.257812 512.097656 509.9375 C 511.859375 509.695312 508.734375 501.683594 505.207031 492.148438 L 498.71875 474.757812 L 490.945312 474.519531 C 483.492188 474.277344 483.171875 474.359375 483.171875 476.042969 M 349.917969 509.292969 C 347.597656 511.617188 352.402344 522.355469 357.933594 527.164062 C 364.421875 532.933594 372.035156 535.65625 374.519531 533.171875 C 377.5625 530.128906 374.359375 524.359375 365.707031 517.46875 C 363.140625 515.382812 359.9375 512.742188 358.574219 511.699219 C 356.089844 509.695312 350.960938 508.253906 349.917969 509.292969 M 379.96875 518.589844 C 378.605469 519.953125 378.765625 521.472656 380.6875 524.519531 C 381.8125 526.441406 382.210938 528.207031 382.050781 530.609375 L 381.8125 534.054688 L 385.257812 533.894531 C 389.421875 533.734375 395.433594 530.527344 399.4375 526.441406 C 402.804688 522.996094 402.5625 521.632812 398.71875 521.632812 C 397.277344 521.632812 393.910156 520.753906 391.1875 519.632812 C 385.816406 517.46875 381.492188 517.066406 379.96875 518.589844 "/>
</g>
</svg>
